<svg width="186" height="32" viewBox="0 0 186 32" fill="none" xmlns="http://www.w3.org/2000/svg">
<g opacity="0.4">
<path d="M5.208 22.24C4.59467 22.24 4.024 22.16 3.496 22C2.97333 21.84 2.50933 21.6107 2.104 21.312C1.69867 21.0133 1.36267 20.6533 1.096 20.232C0.834667 19.8107 0.656 19.336 0.56 18.808L2.032 18.576C2.21867 19.3173 2.592 19.888 3.152 20.288C3.71733 20.688 4.42667 20.888 5.28 20.888C5.69067 20.888 6.064 20.84 6.4 20.744C6.74133 20.6427 7.03467 20.5013 7.28 20.32C7.52533 20.1387 7.71467 19.9253 7.848 19.68C7.98133 19.4293 8.048 19.152 8.048 18.848C8.048 18.0533 7.512 17.496 6.44 17.176L3.504 16.304C1.84 15.808 1.008 14.8613 1.008 13.464C1.008 12.984 1.10667 12.5467 1.304 12.152C1.50133 11.7573 1.776 11.4187 2.128 11.136C2.48 10.8533 2.90133 10.6347 3.392 10.48C3.88267 10.3253 4.42133 10.248 5.008 10.248C5.59467 10.248 6.136 10.3253 6.632 10.48C7.128 10.6347 7.56533 10.856 7.944 11.144C8.328 11.432 8.648 11.784 8.904 12.2C9.16 12.616 9.34133 13.088 9.448 13.616L7.936 13.88C7.87733 13.528 7.76267 13.2107 7.592 12.928C7.42667 12.6453 7.216 12.408 6.96 12.216C6.70933 12.0187 6.416 11.8667 6.08 11.76C5.74933 11.6533 5.38667 11.6 4.992 11.6C4.61867 11.6 4.27733 11.6453 3.968 11.736C3.664 11.8267 3.40267 11.9547 3.184 12.12C2.97067 12.28 2.80533 12.472 2.688 12.696C2.57067 12.9147 2.512 13.152 2.512 13.408C2.512 13.6107 2.54667 13.7947 2.616 13.96C2.69067 14.12 2.80533 14.2693 2.96 14.408C3.11467 14.5413 3.31467 14.664 3.56 14.776C3.80533 14.8827 4.10133 14.9867 4.448 15.088L6.624 15.72C8.55467 16.264 9.52 17.2853 9.52 18.784C9.52 19.3013 9.416 19.7733 9.208 20.2C9.00533 20.6213 8.71467 20.984 8.336 21.288C7.95733 21.592 7.504 21.8267 6.976 21.992C6.448 22.1573 5.85867 22.24 5.208 22.24ZM14.9101 20.904C15.5075 20.904 16.0035 20.7733 16.3981 20.512C16.7928 20.2507 17.1101 19.8747 17.3501 19.384L18.7261 19.84C18.3848 20.6133 17.8835 21.208 17.2221 21.624C16.5661 22.0347 15.7955 22.24 14.9101 22.24C14.2808 22.24 13.7075 22.1307 13.1901 21.912C12.6728 21.6933 12.2301 21.3867 11.8621 20.992C11.4995 20.592 11.2168 20.112 11.0141 19.552C10.8168 18.992 10.7181 18.368 10.7181 17.68C10.7181 16.9867 10.8168 16.36 11.0141 15.8C11.2115 15.2347 11.4915 14.7547 11.8541 14.36C12.2221 13.9653 12.6621 13.6613 13.1741 13.448C13.6861 13.2293 14.2541 13.12 14.8781 13.12C15.5395 13.12 16.1261 13.2347 16.6381 13.464C17.1501 13.6933 17.5768 14.0213 17.9181 14.448C18.2595 14.8747 18.5101 15.3947 18.6701 16.008C18.8355 16.6213 18.9021 17.312 18.8701 18.08H12.2461C12.2781 18.528 12.3608 18.928 12.4941 19.28C12.6328 19.6267 12.8168 19.92 13.0461 20.16C13.2755 20.4 13.5448 20.584 13.8541 20.712C14.1688 20.84 14.5208 20.904 14.9101 20.904ZM17.3901 16.936C17.3261 16.1253 17.0781 15.504 16.6461 15.072C16.2141 14.6347 15.6248 14.416 14.8781 14.416C14.1421 14.416 13.5501 14.6347 13.1021 15.072C12.6595 15.5093 12.3848 16.1307 12.2781 16.936H17.3901ZM24.2913 22.24C23.6513 22.24 23.0753 22.1307 22.5633 21.912C22.0566 21.688 21.6246 21.376 21.2673 20.976C20.9153 20.576 20.6433 20.096 20.4513 19.536C20.2646 18.976 20.1713 18.3573 20.1713 17.68C20.1713 16.992 20.2673 16.368 20.4593 15.808C20.6513 15.248 20.9233 14.7707 21.2753 14.376C21.6326 13.976 22.0673 13.6667 22.5793 13.448C23.0913 13.2293 23.6673 13.12 24.3073 13.12C24.7659 13.12 25.1926 13.1787 25.5873 13.296C25.9873 13.4133 26.3446 13.5813 26.6593 13.8C26.9793 14.0133 27.2513 14.2747 27.4753 14.584C27.7046 14.8933 27.8753 15.2427 27.9873 15.632L26.5793 16.056C26.3926 15.5547 26.0966 15.1653 25.6913 14.888C25.2913 14.6107 24.8246 14.472 24.2913 14.472C23.8646 14.472 23.4886 14.5493 23.1633 14.704C22.8379 14.8533 22.5659 15.0667 22.3473 15.344C22.1286 15.6213 21.9633 15.9573 21.8513 16.352C21.7393 16.7467 21.6833 17.1893 21.6833 17.68C21.6833 18.16 21.7366 18.5973 21.8433 18.992C21.9553 19.3867 22.1206 19.7253 22.3393 20.008C22.5579 20.2853 22.8299 20.5013 23.1553 20.656C23.4806 20.8107 23.8593 20.888 24.2913 20.888C24.8619 20.888 25.3313 20.7573 25.6993 20.496C26.0726 20.2347 26.3553 19.8613 26.5473 19.376L27.9873 19.752C27.6833 20.5627 27.2139 21.1813 26.5793 21.608C25.9499 22.0293 25.1873 22.24 24.2913 22.24ZM30.884 18.104C30.884 18.584 30.9373 19 31.044 19.352C31.156 19.6987 31.3133 19.9867 31.516 20.216C31.724 20.4453 31.972 20.616 32.26 20.728C32.548 20.8347 32.8707 20.888 33.228 20.888C33.5853 20.888 33.9107 20.8347 34.204 20.728C34.4973 20.616 34.748 20.448 34.956 20.224C35.164 19.9947 35.324 19.704 35.436 19.352C35.5533 19 35.612 18.584 35.612 18.104V13.36H37.036V22H35.612V20.752C35.5107 20.9493 35.3827 21.1387 35.228 21.32C35.0787 21.5013 34.8947 21.6613 34.676 21.8C34.4573 21.9333 34.204 22.04 33.916 22.12C33.628 22.2 33.2973 22.24 32.924 22.24C32.4067 22.24 31.9347 22.1627 31.508 22.008C31.0813 21.8533 30.716 21.616 30.412 21.296C30.108 20.976 29.8733 20.5733 29.708 20.088C29.5427 19.5973 29.46 19.0187 29.46 18.352V13.36H30.884V18.104ZM43.7243 14.512C43.6336 14.496 43.5349 14.4853 43.4283 14.48C43.3216 14.4747 43.2043 14.472 43.0763 14.472C42.7243 14.472 42.4016 14.528 42.1083 14.64C41.8149 14.7467 41.5616 14.9147 41.3483 15.144C41.1403 15.368 40.9776 15.656 40.8603 16.008C40.7483 16.3547 40.6923 16.768 40.6923 17.248V22H39.2683V13.36H40.6923V14.608C40.7936 14.4107 40.9189 14.2213 41.0683 14.04C41.2229 13.8587 41.4096 13.7013 41.6283 13.568C41.8469 13.4293 42.1003 13.32 42.3883 13.24C42.6763 13.16 43.0069 13.12 43.3803 13.12C43.4389 13.12 43.4949 13.12 43.5483 13.12C43.6069 13.12 43.6656 13.1227 43.7243 13.128V14.512ZM48.8008 20.904C49.3981 20.904 49.8941 20.7733 50.2888 20.512C50.6834 20.2507 51.0008 19.8747 51.2408 19.384L52.6168 19.84C52.2754 20.6133 51.7741 21.208 51.1128 21.624C50.4568 22.0347 49.6861 22.24 48.8008 22.24C48.1714 22.24 47.5981 22.1307 47.0808 21.912C46.5634 21.6933 46.1208 21.3867 45.7528 20.992C45.3901 20.592 45.1074 20.112 44.9048 19.552C44.7074 18.992 44.6088 18.368 44.6088 17.68C44.6088 16.9867 44.7074 16.36 44.9048 15.8C45.1021 15.2347 45.3821 14.7547 45.7448 14.36C46.1128 13.9653 46.5528 13.6613 47.0648 13.448C47.5768 13.2293 48.1448 13.12 48.7688 13.12C49.4301 13.12 50.0168 13.2347 50.5288 13.464C51.0408 13.6933 51.4674 14.0213 51.8088 14.448C52.1501 14.8747 52.4008 15.3947 52.5608 16.008C52.7261 16.6213 52.7928 17.312 52.7608 18.08H46.1368C46.1688 18.528 46.2514 18.928 46.3848 19.28C46.5234 19.6267 46.7074 19.92 46.9368 20.16C47.1661 20.4 47.4354 20.584 47.7448 20.712C48.0594 20.84 48.4114 20.904 48.8008 20.904ZM51.2808 16.936C51.2168 16.1253 50.9688 15.504 50.5368 15.072C50.1048 14.6347 49.5154 14.416 48.7688 14.416C48.0328 14.416 47.4408 14.6347 46.9928 15.072C46.5501 15.5093 46.2754 16.1307 46.1688 16.936H51.2808ZM62.3019 10.48V22H60.8779V20.648C60.6005 21.1493 60.2245 21.5413 59.7499 21.824C59.2805 22.1013 58.6939 22.24 57.9899 22.24C57.3925 22.24 56.8512 22.128 56.3659 21.904C55.8805 21.68 55.4672 21.368 55.1259 20.968C54.7845 20.5627 54.5205 20.0827 54.3339 19.528C54.1525 18.968 54.0619 18.3547 54.0619 17.688C54.0619 17.0107 54.1552 16.392 54.3419 15.832C54.5285 15.272 54.7925 14.792 55.1339 14.392C55.4752 13.9867 55.8885 13.6747 56.3739 13.456C56.8592 13.232 57.3979 13.12 57.9899 13.12C58.6939 13.12 59.2805 13.2613 59.7499 13.544C60.2245 13.8267 60.6005 14.216 60.8779 14.712V10.48H62.3019ZM58.2299 14.472C57.7819 14.472 57.3925 14.552 57.0619 14.712C56.7312 14.8667 56.4539 15.0853 56.2299 15.368C56.0112 15.6507 55.8459 15.9893 55.7339 16.384C55.6272 16.7787 55.5739 17.2133 55.5739 17.688C55.5739 18.1733 55.6299 18.6133 55.7419 19.008C55.8539 19.4027 56.0192 19.7387 56.2379 20.016C56.4619 20.2933 56.7392 20.5093 57.0699 20.664C57.4005 20.8133 57.7872 20.888 58.2299 20.888C58.6832 20.888 59.0752 20.8107 59.4059 20.656C59.7365 20.496 60.0112 20.2773 60.2299 20C60.4485 19.7173 60.6112 19.3787 60.7179 18.984C60.8245 18.5893 60.8779 18.1573 60.8779 17.688C60.8779 17.1973 60.8219 16.7547 60.7099 16.36C60.5979 15.9653 60.4299 15.6293 60.2059 15.352C59.9872 15.0693 59.7125 14.8533 59.3819 14.704C59.0512 14.5493 58.6672 14.472 58.2299 14.472ZM67.737 10.48H69.161V14.712C69.4383 14.216 69.8117 13.8267 70.281 13.544C70.7557 13.2613 71.345 13.12 72.049 13.12C72.641 13.12 73.1797 13.232 73.665 13.456C74.1503 13.6747 74.5637 13.9867 74.905 14.392C75.2463 14.792 75.5103 15.272 75.697 15.832C75.8837 16.392 75.977 17.0107 75.977 17.688C75.977 18.3547 75.8837 18.968 75.697 19.528C75.5157 20.0827 75.2543 20.5627 74.913 20.968C74.5717 21.368 74.1583 21.68 73.673 21.904C73.1877 22.128 72.6463 22.24 72.049 22.24C71.345 22.24 70.7557 22.1013 70.281 21.824C69.8117 21.5413 69.4383 21.1493 69.161 20.648V22H67.737V10.48ZM71.809 14.472C71.3717 14.472 70.9877 14.5493 70.657 14.704C70.3263 14.8533 70.049 15.0693 69.825 15.352C69.6063 15.6293 69.441 15.9653 69.329 16.36C69.217 16.7547 69.161 17.1973 69.161 17.688C69.161 18.1573 69.2143 18.5893 69.321 18.984C69.4277 19.3787 69.5903 19.7173 69.809 20C70.0277 20.2773 70.3023 20.496 70.633 20.656C70.9637 20.8107 71.3557 20.888 71.809 20.888C72.2517 20.888 72.6383 20.8133 72.969 20.664C73.2997 20.5093 73.5743 20.2933 73.793 20.016C74.017 19.7387 74.185 19.4027 74.297 19.008C74.409 18.6133 74.465 18.1733 74.465 17.688C74.465 17.2133 74.409 16.7787 74.297 16.384C74.1903 15.9893 74.025 15.6507 73.801 15.368C73.5823 15.0853 73.3077 14.8667 72.977 14.712C72.6463 14.552 72.257 14.472 71.809 14.472ZM78.9294 25.84L80.3534 21.968L76.8494 13.36H78.3454L81.0414 20.16L83.5694 13.36H85.0174L80.3134 25.84H78.9294Z" fill="white"/>
<mask id="mask0_683_36" style="mask-type:alpha" maskUnits="userSpaceOnUse" x="89" y="7" width="95" height="18">
<path d="M183.884 7.47736H89V24.6556H183.884V7.47736Z" fill="white"/>
</mask>
<g mask="url(#mask0_683_36)">
<path fill-rule="evenodd" clip-rule="evenodd" d="M137.005 22.2538C136.379 22.2538 135.806 22.1225 135.284 21.8599C134.99 21.7084 134.735 21.5283 134.518 21.3197C134.381 21.1879 134.103 21.2773 134.103 21.4661V21.7479C134.103 21.8759 133.997 21.9798 133.867 21.9798H132.739C132.609 21.9798 132.504 21.8759 132.504 21.7479V9.94792C132.504 9.81987 132.609 9.71609 132.739 9.71609H133.862C133.992 9.71609 134.097 9.81987 134.097 9.94792V14.1011C134.097 14.2899 134.376 14.3798 134.514 14.2484C134.732 14.0395 134.99 13.8591 135.284 13.7073C135.806 13.4447 136.379 13.3134 137.005 13.3134C138.129 13.3134 139.079 13.7473 139.855 14.6151C140.655 15.4942 141.054 16.5505 141.054 17.7836C141.054 19.0281 140.655 20.0843 139.855 20.9521C139.079 21.8199 138.129 22.2538 137.005 22.2538ZM136.744 20.8151C137.509 20.8151 138.152 20.5297 138.673 19.9588C139.195 19.3993 139.455 18.6742 139.455 17.7836C139.455 16.9044 139.195 16.1794 138.673 15.6084C138.152 15.0375 137.509 14.7521 136.744 14.7521C135.968 14.7521 135.319 15.0375 134.798 15.6084C134.288 16.1794 134.033 16.9044 134.033 17.7836C134.033 18.6742 134.288 19.405 134.798 19.9759C135.319 20.5353 135.968 20.8151 136.744 20.8151ZM127.01 22.2538C125.758 22.2538 124.727 21.8313 123.916 20.9864C123.105 20.1415 122.7 19.0739 122.7 17.7836C122.7 16.5048 123.094 15.4429 123.882 14.5979C124.67 13.7416 125.677 13.3134 126.906 13.3134C128.168 13.3134 129.171 13.7187 129.912 14.5294C130.711 15.3775 131.093 16.6531 131.043 17.8132C131.037 17.962 130.909 18.0748 130.758 18.0748H124.621C124.463 18.0748 124.336 18.203 124.352 18.3572C124.425 19.0499 124.697 19.618 125.168 20.0615C125.701 20.5639 126.338 20.8151 127.079 20.8151C128.025 20.8151 128.782 20.3826 129.349 19.5175C129.425 19.4019 129.575 19.3549 129.701 19.4153L130.656 19.8745C130.791 19.9393 130.845 20.1016 130.767 20.2277C130.398 20.8245 129.91 21.3 129.304 21.6544C128.632 22.054 127.867 22.2538 127.01 22.2538ZM124.548 16.4423C124.491 16.6094 124.625 16.7731 124.803 16.7731H129.036C129.199 16.7731 129.33 16.6356 129.297 16.4784C129.202 16.027 128.972 15.6456 128.609 15.3344C128.18 14.9462 127.601 14.7521 126.871 14.7521C126.268 14.7521 125.747 14.9347 125.307 15.3001C124.958 15.5976 124.705 15.9784 124.548 16.4423ZM122.21 13.9094C122.262 13.7503 122.141 13.5874 121.972 13.5874H120.868C120.758 13.5874 120.66 13.6594 120.629 13.7641L119.001 19.2088C118.936 19.4272 118.624 19.4317 118.552 19.2153L116.741 13.7572C116.707 13.6559 116.611 13.5874 116.503 13.5874H115.214C115.106 13.5874 115.01 13.6556 114.977 13.7566L113.149 19.219C113.077 19.4349 112.765 19.43 112.7 19.2119L111.072 13.7641C111.04 13.6594 110.943 13.5874 110.832 13.5874H109.694C109.524 13.5874 109.404 13.7503 109.456 13.9094L112.04 21.809C112.074 21.9108 112.17 21.9798 112.278 21.9798H113.53C113.639 21.9798 113.735 21.9107 113.768 21.8089L115.592 16.2229C115.662 16.0088 115.97 16.0084 116.04 16.2223L117.879 21.8094C117.913 21.9111 118.009 21.9798 118.117 21.9798H119.387C119.496 21.9798 119.592 21.9108 119.625 21.809L122.21 13.9094ZM171.747 21.4831C172.21 21.9056 172.789 22.1168 173.484 22.1168C173.945 22.1168 174.357 22.066 174.722 21.9644C174.846 21.9298 174.909 21.7971 174.866 21.677L174.526 20.7261C174.479 20.5986 174.333 20.5371 174.202 20.5779C174.167 20.5889 174.13 20.5995 174.093 20.6096C173.977 20.6324 173.855 20.6438 173.727 20.6438C173.45 20.6438 173.201 20.5468 172.981 20.3527C172.76 20.1471 172.651 19.7646 172.651 19.2052V15.2579C172.651 15.1299 172.756 15.0261 172.886 15.0261H174.501C174.631 15.0261 174.736 14.9223 174.736 14.7943V13.8193C174.736 13.6912 174.631 13.5874 174.501 13.5874H172.886C172.756 13.5874 172.651 13.4836 172.651 13.3556V9.94792C172.651 9.81987 172.545 9.71609 172.415 9.71609H171.286C171.157 9.71609 171.052 9.81987 171.052 9.94792V13.3556C171.052 13.4836 170.946 13.5874 170.816 13.5874H169.792C169.662 13.5874 169.557 13.6912 169.557 13.8193V14.7943C169.557 14.9223 169.662 15.0261 169.792 15.0261H170.816C170.946 15.0261 171.052 15.1299 171.052 15.2579V19.719C171.063 20.4726 171.295 21.0606 171.747 21.4831ZM148.913 21.2262C149.689 20.5411 150.077 19.6848 150.077 18.6571C150.077 18.0291 149.897 17.4639 149.538 16.9615C149.373 16.7227 149.136 16.4189 148.439 16.0342C148.292 15.9529 148.288 15.7363 148.428 15.6423C149.261 15.0794 149.678 14.2273 149.678 13.2278C149.678 12.2801 149.324 11.5093 148.617 10.9156C147.899 10.299 147.013 9.99068 145.958 9.99068C145.112 9.99068 144.377 10.2134 143.751 10.6587C143.193 11.0555 142.779 11.5611 142.506 12.1755C142.45 12.3027 142.515 12.4482 142.644 12.5023L143.633 12.9147C143.773 12.9731 143.932 12.9029 143.995 12.7666C144.384 11.9208 145.039 11.4979 145.958 11.4979C146.584 11.4979 147.088 11.6578 147.47 11.9774C147.853 12.2972 148.043 12.7139 148.043 13.2278C148.043 13.7873 147.841 14.244 147.436 14.5979C147.03 14.9405 146.508 15.1118 145.871 15.1118H145.232C145.086 15.1118 144.968 15.2285 144.968 15.3726V16.3239C144.968 16.4679 145.086 16.5847 145.232 16.5847H145.993C146.665 16.5847 147.238 16.7846 147.713 17.1841C148.2 17.5838 148.444 18.0748 148.444 18.6571C148.444 19.2394 148.212 19.7361 147.748 20.1472C147.273 20.5468 146.711 20.7466 146.063 20.7466C145.472 20.7466 144.962 20.5753 144.533 20.2328C144.178 19.9315 143.907 19.5227 143.72 19.0063C143.666 18.8589 143.5 18.7787 143.354 18.8388L142.387 19.2358C142.263 19.2867 142.196 19.4213 142.24 19.5465C142.51 20.3248 142.979 20.9647 143.647 21.466C144.365 21.9912 145.17 22.2538 146.063 22.2538C147.198 22.2538 148.148 21.9113 148.913 21.2262ZM152.914 19.4107C152.914 18.9539 153.129 18.5714 153.557 18.2631C153.997 17.9549 154.542 17.8007 155.191 17.8007C156.023 17.8007 156.684 17.9697 157.174 18.3076C157.24 18.3534 157.277 18.4296 157.273 18.5093C157.241 19.1188 156.976 19.6534 156.477 20.1129C155.956 20.6039 155.359 20.8493 154.687 20.8493C154.212 20.8493 153.795 20.7124 153.436 20.4383C153.088 20.1643 152.914 19.8217 152.914 19.4107ZM157.78 14.2554C157.097 13.6274 156.164 13.3134 154.982 13.3134C153.558 13.3134 152.46 13.7964 151.688 14.7623C151.605 14.8663 151.636 15.0166 151.75 15.0871L152.758 15.7128C152.865 15.7789 153.005 15.7499 153.084 15.653C153.589 15.0295 154.251 14.7178 155.069 14.7178C155.66 14.7178 156.175 14.912 156.616 15.3001C157.059 15.6793 157.216 16.1351 157.261 16.6499C157.276 16.8268 157.08 16.9412 156.914 16.8728C156.363 16.6465 155.703 16.5333 154.93 16.5333C153.818 16.5333 152.926 16.7902 152.254 17.3041C151.593 17.8178 151.263 18.5086 151.263 19.3764C151.263 20.1985 151.576 20.8836 152.202 21.4317C152.839 21.9798 153.626 22.2538 154.565 22.2538C155.666 22.2538 156.546 21.7742 157.207 20.8151V21.7479C157.207 21.8759 157.312 21.9798 157.442 21.9798H158.57C158.7 21.9798 158.805 21.8759 158.805 21.7479V16.8073C158.805 15.7227 158.464 14.8719 157.78 14.2554ZM168.082 21.7334C168.082 21.8695 167.97 21.9798 167.833 21.9798H166.733C166.595 21.9798 166.483 21.8695 166.483 21.7334V21.4583C166.483 21.2808 166.211 21.1957 166.082 21.3202C165.88 21.5157 165.638 21.6899 165.354 21.8428C164.855 22.1168 164.334 22.2538 163.789 22.2538C162.747 22.2538 161.941 21.9627 161.374 21.3803C160.818 20.7865 160.539 19.9474 160.539 18.8626V13.8338C160.539 13.6977 160.651 13.5874 160.79 13.5874H161.889C162.026 13.5874 162.138 13.6977 162.138 13.8338V18.7599C162.173 20.13 162.874 20.8151 164.241 20.8151C164.878 20.8151 165.411 20.5639 165.84 20.0615C166.269 19.5477 166.483 18.9368 166.483 18.2289V13.8338C166.483 13.6977 166.595 13.5874 166.733 13.5874H167.833C167.97 13.5874 168.082 13.6977 168.082 13.8338V21.7334ZM176.342 9.94792C176.342 9.81987 176.447 9.71609 176.577 9.71609H177.706C177.835 9.71609 177.94 9.81987 177.94 9.94792V14.1089C177.94 14.2864 178.212 14.3708 178.339 14.2455C178.538 14.0506 178.776 13.8769 179.053 13.7244C179.562 13.4504 180.089 13.3134 180.634 13.3134C181.677 13.3134 182.476 13.6103 183.032 14.204C183.6 14.7863 183.884 15.6199 183.884 16.7046V21.7479C183.884 21.8759 183.779 21.9798 183.649 21.9798H182.521C182.39 21.9798 182.285 21.8759 182.285 21.7479V17.0129C182.285 15.5057 181.608 14.7521 180.252 14.7521C179.603 14.7521 179.053 15.0204 178.601 15.557C178.161 16.0823 177.94 16.6989 177.94 17.4068V21.7479C177.94 21.8759 177.835 21.9798 177.706 21.9798H176.577C176.447 21.9798 176.342 21.8759 176.342 21.7479V9.94792Z" fill="white"/>
<path d="M103.171 20.6495C103.264 20.9975 103.757 20.9975 103.85 20.6495L106.529 10.6304C106.652 10.1691 106.305 9.71609 105.829 9.71609H104.177C103.849 9.71609 103.562 9.93689 103.477 10.2544L101.966 15.9043C101.945 15.9827 101.945 16.0652 101.966 16.1436L103.171 20.6495Z" fill="#0364FF"/>
<path d="M93.8079 15.8971C93.8288 15.9754 93.8288 16.0579 93.8079 16.1363L92.603 20.6421C92.5099 20.9901 92.0171 20.9901 91.924 20.6421L89.2468 10.6304C89.1235 10.1691 89.4704 9.71609 89.947 9.71609H91.5989C91.9269 9.71609 92.2141 9.93689 92.299 10.2544L93.8079 15.8971Z" fill="#0364FF"/>
<path d="M96.0671 22.8518C95.9851 23.1594 95.7077 23.3733 95.3909 23.3733H93.7005C93.2402 23.3733 92.9052 22.9344 93.0243 22.4876L96.2772 10.2864C96.3669 9.94996 96.6702 9.71609 97.0168 9.71609H98.9829C99.3294 9.71609 99.6328 9.94996 99.7225 10.2864L102.975 22.4876C103.095 22.9344 102.759 23.3733 102.299 23.3733H100.609C100.292 23.3733 100.015 23.1594 99.9325 22.8518L98.3273 16.8308C98.2375 16.4941 97.762 16.4941 97.6723 16.8308L96.0671 22.8518Z" fill="#0364FF"/>
<path d="M97.4059 21.5824C97.285 21.5824 97.1969 21.473 97.2282 21.3617L97.8218 19.2496C97.8705 19.0763 98.1285 19.0763 98.1773 19.2496L98.7709 21.3617C98.8023 21.473 98.7142 21.5824 98.5932 21.5824H97.4059Z" fill="#0364FF"/>
</g>
</g>
</svg>
